<?xml version="1.0" encoding="utf-8"?>
<!-- Generator: Adobe Illustrator 19.2.0, SVG Export Plug-In . SVG Version: 6.00 Build 0)  -->
<svg version="1.1" id="Layer_1" xmlns="http://www.w3.org/2000/svg" xmlns:xlink="http://www.w3.org/1999/xlink" x="0px" y="0px"
	 viewBox="0 0 346.4 65.7" style="enable-background:new 0 0 346.4 65.7;" xml:space="preserve">
<style type="text/css">
	.st0{fill:#853977;}
	.st1{fill:#A7A9AC;}
</style>
<g>
	<g>
		<path class="st0" d="M220,9.1c2.3,3.8,3.2,6.8,2.8,9c-0.3,1.7-1.8,0.2-4.3-4.3c-2.5-4.5-6-7.3-10.4-8.3c-9,2.2-14.9,6.8-17.9,13.8
			c-3,7-4.6,14.9-4.9,23.9c-0.3,8.9,2.9,14.7,9.5,17.4s13.6,1.7,20.8-2.8c0.9-1,1.5-2.1,1.7-3.1c0.4-2.5,0.4-4.4,0.3-5.8l0.3-0.6
			l0.6,0.1c1.4,1.8,1.8,3.8,1.4,6.1c-0.5,2.9-3.3,5.8-8.4,8.6c-3.8,1.7-8.5,2.3-14.2,1.7c-5.7-0.6-10.2-2.7-13.7-6.5
			c-3.4-3.7-5-10.4-4.8-19.9c0.2-9.6,2.5-17.4,6.9-23.4s9.7-9.8,16.1-11.4C208.2,1.9,214.2,3.8,220,9.1z"/>
		<path class="st0" d="M241.8,1.2c1.7,2.2,2.1,5.6,1.3,10.3c-0.9,4.7-3.1,9.1-6.6,13.1c-3.7,5.7-5.5,9.8-5.5,12.3v3.6l0.4,0.4h0.2
			c6-5.4,9.9-8.1,11.7-8.1h1.1c5.1-0.7,6.2,4.1,3.4,14.6s-2.2,15.5,1.7,14.9c2.8,0,6.6-5,11.5-15.1l0.6-0.4l0.4,0.4
			c-0.5,4.3-3.2,9.4-7.9,15.1c-2,1.7-4,2.6-6,2.6c-7.4,2.4-8.9-6.8-4.3-27.5v-0.9c0-0.8-0.3-1.3-0.9-1.5h-0.4c-2,0-5.9,3.3-11.7,10
			c-1.9,13.8-4.1,20.5-6.6,20h-0.6l-0.2-0.6c1.8-7,2.8-15,2.8-24.1c-0.2-10.9,0.6-20.4,2.3-28.6C230.2,3.8,234.7,0.2,241.8,1.2z
			 M231.9,25.7c0.6,0.6,2.7-1.9,6.3-7.3c2-3.3,3-6.6,3-9.8c-0.1-2.8-0.4-4.3-1.1-4.3h-0.4c-1.2,0-3.3,4.8-6.4,14.3
			c-1.1,3-1.6,5.4-1.6,7.1H231.9z"/>
		<path class="st0" d="M277.8,2.9c1,0,1.5,1.8,1.7,5.5c0,11.4-4.2,24.3-12.6,38.7c-2.6,3.5-3.4,6.2-2.6,8.3v1.7
			c0.5,3.1,2,4.7,4.5,4.7l3.4,0.4c5.2,0.5,10.4-5.1,15.5-16.6l0.6-0.9h0.2c0.3,0,0.4,0.2,0.4,0.6c-0.5,3.2-2,6.8-4.7,10.9
			c-5.5,6.4-10.3,9.3-14.4,8.9c-5.3,0-9.1-3-11.3-9c-2.3-6-1.9-15.1,1.2-27.3s6.1-20,9.1-23.2C271.8,2.6,274.8,1.7,277.8,2.9z
			 M264.2,46.4c3-4.1,6-10.1,9.1-17.8c3.1-7.8,4.5-14.4,4.1-19.8V5.9l-0.4-0.4h-0.9c-1.1,0-3.2,5.2-6.2,15.5
			C266.6,30.8,264.7,39.2,264.2,46.4z"/>
		<path class="st0" d="M306.3,31.5c2.7,0,3.8,2.6,3.4,7.8c-0.5,5.2-0.5,7.8,0,7.8c0.4,0,3.9-2.1,10.6-6.4l0.9-0.2l1.1,0.6
			c0,0.8-4.3,3.8-13,9.2c-1.4,5.1-3.7,9-6.8,11.6c-2.6,2.3-5,3.4-7.2,3.4c-6.3,1.5-10-0.7-11.1-6.4c-1.1-5.7,3.4-14.3,13.6-25.7
			c1.3-0.9,2.3-1.3,3-1.3l0.6,0.2v0.9c-7.1,8.4-10.7,15.3-10.7,20.6c0,5.3,1.5,8.4,4.6,9.2h1.7c3.3,0,6.5-3.7,9.5-11l-0.2-1.1
			c-3.1-3.2-4.7-6.7-4.9-10.3c-0.2-3.7,1.2-6.5,4.1-8.6L306.3,31.5z M303.9,37.8c-0.6,2.3,0,5.4,1.7,9.4h0.2c0.3,0,0.5-0.5,0.6-1.5
			c1.3-7.7,1.2-11.5-0.4-11.5C305.2,34.3,304.5,35.5,303.9,37.8z"/>
		<path class="st0" d="M330.7,32.3h1.1c2.3,0,2.6,3.4,0.7,10.2s-3.4,10.5-4.6,11.2c-2.4,2.7-3.6,4.3-3.6,4.7
			c1.7,2.6,3.6,3.9,5.5,3.9h2.3c2.3,0.2,6.9-4.7,13.6-14.9h0.4l0.2,1.1c0,1.6-2.8,5.8-8.4,12.7c-3.9,3-6.9,4.3-9,4.1
			c-8.9,0.9-13-3.9-12.4-14.5C317.3,40.3,322,34.1,330.7,32.3z M321.7,48.4c-0.2,3.6,0.2,6.1,1.4,7.5c3.4-3.1,5.8-7.5,7.1-13.2
			c1.3-5.7,1.5-8.5,0.5-8.5h-1.1C325.8,37.3,323.2,42.1,321.7,48.4z"/>
	</g>
	<g>
		<path class="st0" d="M41.1,9.1c2.3,3.8,3.2,6.8,2.8,9c-0.3,1.7-1.8,0.2-4.3-4.3c-2.5-4.5-6-7.3-10.4-8.3
			c-9,2.2-14.9,6.8-17.9,13.8c-3,7-4.6,14.9-4.9,23.9c-0.3,8.9,2.9,14.7,9.5,17.4c6.7,2.7,13.6,1.7,20.8-2.8c0.9-1,1.5-2.1,1.7-3.1
			c0.4-2.5,0.4-4.4,0.3-5.8l0.3-0.6l0.6,0.1c1.4,1.8,1.8,3.8,1.4,6.1c-0.5,2.9-3.3,5.8-8.4,8.6c-3.8,1.7-8.5,2.3-14.2,1.7
			C12.7,64.2,8.2,62,4.8,58.3c-3.4-3.7-5-10.4-4.8-19.9C0.3,28.8,2.5,21,6.9,15C11.3,9,16.6,5.2,23,3.5C29.4,1.9,35.4,3.8,41.1,9.1z
			"/>
		<path class="st0" d="M67,31.5c2.7,0,3.8,2.6,3.4,7.8c-0.5,5.2-0.5,7.8,0,7.8c0.4,0,3.9-2.1,10.6-6.4l0.9-0.2l1.1,0.6
			c0,0.8-4.3,3.8-13,9.2c-1.4,5.1-3.7,9-6.8,11.6c-2.6,2.3-5,3.4-7.2,3.4c-6.3,1.5-10-0.7-11.1-6.4c-1.1-5.7,3.4-14.3,13.6-25.7
			c1.3-0.9,2.3-1.3,3-1.3l0.6,0.2v0.9c-7.1,8.4-10.7,15.3-10.7,20.6c0,5.3,1.5,8.4,4.6,9.2h1.7c3.3,0,6.5-3.7,9.5-11l-0.2-1.1
			c-3.1-3.2-4.7-6.7-4.9-10.3c-0.2-3.7,1.2-6.5,4.1-8.6L67,31.5z M64.7,37.8c-0.6,2.3,0,5.4,1.7,9.4h0.2c0.3,0,0.5-0.5,0.6-1.5
			c1.3-7.7,1.2-11.5-0.4-11.5C66,34.3,65.2,35.5,64.7,37.8z"/>
		<path class="st0" d="M95.2,31.5c2.7,0,3.8,2.6,3.4,7.8c-0.5,5.2-0.5,7.8,0,7.8c0.4,0,3.9-2.1,10.6-6.4l0.9-0.2l1.1,0.6
			c0,0.8-4.3,3.8-13,9.2c-1.4,5.1-3.7,9-6.8,11.6c-2.6,2.3-5,3.4-7.2,3.4c-6.3,1.5-10-0.7-11.1-6.4c-1.1-5.7,3.4-14.3,13.6-25.7
			c1.3-0.9,2.3-1.3,3-1.3l0.6,0.2v0.9C83,41.4,79.5,48.2,79.4,53.5c0,5.3,1.5,8.4,4.6,9.2h1.7c3.3,0,6.5-3.7,9.5-11L95,50.6
			c-3.1-3.2-4.7-6.7-4.9-10.3c-0.2-3.7,1.2-6.5,4.1-8.6L95.2,31.5z M92.9,37.8c-0.6,2.3,0,5.4,1.7,9.4h0.2c0.3,0,0.5-0.5,0.6-1.5
			c1.3-7.7,1.2-11.5-0.4-11.5C94.2,34.3,93.4,35.5,92.9,37.8z"/>
		<path class="st0" d="M127.7,4.1c1.4,0.2,2.2,3.5,2.3,9.7c-0.8,4.8-4,11.6-9.7,20.2v0.2l0.6,0.1c2.4-0.9,4.9-1.2,7.7-0.9
			c1.6,0.2,2.4,1.4,2.3,3.4c-0.3,2-2.2,4.9-5.7,8.6l-0.1,0.9l1.6,4.4c1.6,7.9,3.3,12,5.2,12.3l1,0.4l0.4,0.1
			c4.1-0.6,7.7-4.7,10.6-12.3c1.1-1.3,1.8-1.9,2-1.8l0.4,0.1l0.3,0.5c-0.8,2.8-2.4,6.1-4.7,9.9c-2.3,3.8-5.5,5.8-9.7,6.1
			c-2.7-0.4-4.8-1.8-6.5-4.3c-1.1-2.7-2.2-6.8-3.4-12.2c-0.7-0.8-1.2-1.3-1.7-1.4c-5.5,1.1-8.3,2.2-8.5,3.4
			c-2.1,9.3-4.2,13.8-6.2,13.5c-1.3,0-1.8-0.4-1.7-1.1l6-29.1C114.3,13.4,120.1,3.3,127.7,4.1z M114,44.2l-0.3,1.7l0.4,0.5l0.4,0.1
			c5.7-1.5,8.6-2.6,8.7-3.4c2.1-2.1,3.6-4.2,4.2-6.2l0.1-0.4c0-0.4-0.2-0.6-0.7-0.8c-3.6-0.6-7.6,1.3-11.9,5.7L114,44.2z
			 M116.4,34.3l0.2,0c2.8-2.9,5.5-6.9,8-12.1c1.4-2.6,2.4-5.4,2.8-8.6c0.3-3.5,0.1-5.4-0.8-5.5c-3.2,1.7-6.3,8.9-9.4,21.6
			L116.4,34.3z"/>
	</g>
	<g>
		<path class="st1" d="M156.8,59.3V59c0.1-0.3,0.4-0.4,1-0.4c5.1,1.2,8.7,1.8,10.7,1.7c2-0.1,3.1-0.4,3.1-0.8V59
			c0-1.6-2.1-3-6.3-4.2c-0.5-0.3-1-0.6-1.3-1.1c0-0.4,0.5-0.5,1.4-0.5h4.7c1-0.1,1.5-0.6,1.5-1.5c0-1.7-2.3-3.2-7-4.4
			c-0.8-0.4-3-0.9-6.7-1.5l-0.2-0.3v-0.5c0-0.2,0.2-0.3,0.5-0.3c4.4,0.9,8,1.9,10.9,3c2.6,1.2,3.9,2.6,3.9,4.4l0.1,0.5
			c0,1-0.8,2.1-2.4,3.2v0.1c1.6,1.8,2.4,3.2,2.4,4.1c0.5,3.3-1.9,4.8-7.1,4.3c-5.3-0.4-8.5-1.3-9.5-2.6L156.8,59.3z"/>
		<path class="st1" d="M147,37.9c0-0.4,0.9-0.6,2.7-0.7c0.7,0,1.2,0.5,1.8,1.6c0,0.6-0.6,1-1.9,1.3c-1.8-0.2-2.6-0.9-2.6-2V37.9z
			 M156.3,41.1c0-1.1,0.2-1.7,0.6-1.7h0.1c5.4,1.1,8.6,1.6,9.9,1.6h1c2.7-0.2,4-0.8,4-2l0.1-0.4c0-2.2-2.4-4.5-7.3-6.8l0.2-0.6
			c0.9,0,3.2,1.2,6.7,3.6c1,1.4,1.5,2.8,1.5,4.1v0.7c0.4,3.2-1.1,4.6-4.6,4.4s-7.4-0.8-11.8-1.8C156.5,41.7,156.3,41.3,156.3,41.1z"
			/>
		<path class="st1" d="M143.1,25l0-0.1c0-0.1,0.2-0.3,0.6-0.4c2.3,0.2,6.1,0.9,11.5,2c0.3,0,0.6-0.7,0.7-2.1l0-0.1
			c-0.4-0.5-0.7-0.9-0.7-1.1l0.1-0.3l0.3,0c0.9,0.5,1.4,1.2,1.5,2l0.1,1.9c4.6,1.3,8.8,1.7,12.5,1l0.4-0.1c1.4-0.2,2-0.8,1.8-1.9
			l-0.1-0.7c-0.4-2.5-2.6-4.8-6.7-6.9l-0.3-0.6l0-0.1l0.2,0c3.4,0.9,5.8,2.5,7,4.8c1.2,1.6,1.8,3.4,1.5,5.4s-2.1,3.3-5.7,3.7
			s-7.5-0.1-11.6-1.5l-0.1,0c-0.9,0.4-1.8,1.5-2.6,3.4l0.2,1.1c0,0.3-0.2,0.5-0.6,0.7c-0.4,0.1-0.6-0.2-0.7-1
			c-0.2-1.4,0.4-2.8,1.7-4.1l0-0.3c-1-0.2-4.7-1.2-10.9-3.1C143.3,26.1,143.2,25.7,143.1,25z"/>
		<path class="st1" d="M140.3,10.4c1.1-0.9,2.9-1.1,5.3-0.6c2.4,0.4,4.7,1.6,6.8,3.4c2.9,1.9,5,2.8,6.3,2.8h1.9l0.2-0.2v-0.1
			c-2.8-3.1-4.2-5.1-4.2-6V9.1c-0.4-2.6,2.1-3.2,7.5-1.8c5.4,1.4,8,1.1,7.7-0.9c0-1.4-2.6-3.4-7.8-5.9l-0.2-0.3l0.2-0.2
			c2.2,0.3,4.8,1.6,7.8,4.1c0.9,1,1.3,2,1.3,3.1c1.2,3.8-3.5,4.6-14.1,2.2h-0.4c-0.4,0-0.6,0.1-0.8,0.4V10c0,1,1.7,3.1,5.1,6
			c7.1,1,10.5,2.1,10.3,3.4v0.3l-0.3,0.1c-3.6-0.9-7.7-1.4-12.4-1.4c-5.6,0.1-10.5-0.3-14.7-1.2C141.7,16.3,139.8,14.1,140.3,10.4z
			 M152.9,15.5c0.3-0.3-1-1.4-3.7-3.2c-1.7-1-3.4-1.5-5-1.5c-1.5,0-2.2,0.2-2.2,0.5v0.2c0,0.6,2.4,1.7,7.3,3.3
			c1.6,0.6,2.8,0.8,3.6,0.8V15.5z"/>
	</g>
</g>
</svg>
